# xmcd
#
# Track frame offsets:
#	150
#	20150
#	41112
#	59362
#	80055
#	97240
#	117110
#	134265
#	159935
#	179428
#	201378
#	224875
#	245663
#
# Disc length: 3524 seconds
#
# Revision: 4
# Processed by: cddbd v1.5.2PL0 Copyright (c) Steve Scherf et al.
# Submitted via: EasyCDDAExtractor 15.3.0.1
#
DISCID=cc0dc20d
DTITLE=Alex Ubago - Fantasia O Realidad
DYEAR=2003
DGENRE=Latin
TTITLE0=Aunque No Te Pueda Ver
TTITLE1=Fantasia O Realidad
TTITLE2=Dame Tu Aire
TTITLE3=Prefiero
TTITLE4=Cuanto Antes
TTITLE5=Otro Dia Mas
TTITLE6=Alli Estare
TTITLE7=Despertar
TTITLE8=Por Tantas Cosas
TTITLE9=Salida
TTITLE10=Sin Miedo A Nada
TTITLE11=A Gritos De Esperanza
TTITLE12=Que Pides Tu
EXTD=YEAR: 2003
EXTT0=
EXTT1=
EXTT2=
EXTT3=
EXTT4=
EXTT5=
EXTT6=
EXTT7=
EXTT8=
EXTT9=
EXTT10=
EXTT11=
EXTT12=
PLAYORDER=
